<?xml version="1.0" encoding="UTF-8"?>
<svg version="1.1" xmlns="http://www.w3.org/2000/svg" width="1000" height="1000">
<path d="M0 0 C95.04 0 190.08 0 288 0 C288 6.6 288 13.2 288 20 C285.41929687 20.03738281 282.83859375 20.07476562 280.1796875 20.11328125 C277.63094448 20.15972626 275.08233518 20.2108754 272.53369141 20.26245117 C270.7863809 20.29534361 269.03897323 20.32348164 267.29150391 20.34643555 C245.22983546 20.64388202 224.31983728 24.13965753 208.1875 40.625 C189.94926353 62.93075684 192.54104887 99.40165697 192.60782599 126.49506462 C192.61472046 130.64877772 192.6040842 134.80245579 192.59588623 138.9561615 C192.58265103 147.06267189 192.58538191 155.16909824 192.59412415 163.27561172 C192.60094705 169.88084902 192.6017977 176.48606305 192.5985527 183.09130287 C192.59786316 184.5108136 192.59786316 184.5108136 192.59715968 185.95900131 C192.59620031 187.88267444 192.59522766 189.80634756 192.5942419 191.73002068 C192.5857163 209.71013199 192.59547432 227.6901972 192.611643 245.67030094 C192.62501519 261.01354085 192.62273817 276.35671253 192.60888672 291.69995117 C192.59273132 309.60311591 192.58656959 327.50624024 192.59572351 345.40941125 C192.59667893 347.32930489 192.59762205 349.24919853 192.5985527 351.16909218 C192.59901553 352.11318828 192.59947836 353.05728438 192.59995521 354.02998945 C192.60251758 360.60125799 192.59823391 367.17250039 192.59111404 373.74376488 C192.58258592 381.79038013 192.58520975 389.83690795 192.60095628 397.88351353 C192.60869485 401.96922538 192.61218758 406.05479305 192.60200882 410.14050293 C192.56351946 427.04886478 193.00221488 443.81518378 194.37973022 460.67304993 C194.47151961 461.80405231 194.47151961 461.80405231 194.56516333 462.95790323 C198.73687873 513.25403799 209.32779192 567.16640237 249.64941406 601.40039062 C279.83242793 626.16327636 317.87869135 634.24055499 356 636 C357.26457031 636.06058594 358.52914063 636.12117187 359.83203125 636.18359375 C405.24511783 637.13553268 456.52404337 625.41377666 494 599 C495.11415478 598.24415956 496.22876902 597.48899613 497.34375 596.734375 C505.52656074 591.12298451 512.96454753 584.9945906 520 578 C520.47034668 577.53368164 520.94069336 577.06736328 521.42529297 576.58691406 C556.2677709 541.53997562 561.81726203 491.62395081 565.1875 444.625 C565.27153076 443.45541748 565.35556152 442.28583496 565.44213867 441.08081055 C565.5166626 439.95328369 565.59118652 438.82575684 565.66796875 437.6640625 C565.73266357 436.68904785 565.7973584 435.7140332 565.86401367 434.70947266 C565.98274231 431.47075997 565.99626918 428.2611254 565.97781658 425.02113152 C565.97120052 418.65169704 566.19821106 412.31390045 566.49092102 405.9524231 C567.07902085 391.88599159 567.14842028 377.83806581 567.14526367 363.76123047 C567.14773046 361.04087696 567.15164346 358.32052588 567.15544128 355.60017395 C567.16364406 349.04639794 567.16649131 342.49263093 567.16705366 335.93885021 C567.16753365 330.59792569 567.16961203 325.25700407 567.17275429 319.91608047 C567.18153109 304.68194659 567.18617814 289.44781966 567.18542381 274.21368323 C567.18538386 273.39744511 567.1853439 272.58120699 567.18530273 271.74023438 C567.18526185 270.9229686 567.18522097 270.10570282 567.18517885 269.26367141 C567.18477282 256.03378422 567.19433953 242.80392555 567.2084411 229.5740466 C567.2228981 215.8999169 567.22970627 202.22580103 567.22884732 188.55166352 C567.22851864 180.91066972 567.23117555 173.26970615 567.24202538 165.62871933 C571.92375863 98.65490514 571.92375863 98.65490514 551 38 C547.54516619 34.95317571 543.91362104 32.42137705 540 30 C539.34128906 29.59007812 538.68257812 29.18015625 538.00390625 28.7578125 C527.11316957 22.71521022 514.30245873 20.92896985 502.0390625 20.71875 C500.33463521 20.68099912 498.63020813 20.64323843 496.92578125 20.60546875 C494.25930124 20.55159547 491.59279402 20.49937651 488.92626953 20.44775391 C486.33876575 20.39622131 483.75143477 20.33895551 481.1640625 20.28125 C479.95793808 20.26088684 479.95793808 20.26088684 478.72744751 20.2401123 C473.11295057 20.11295057 473.11295057 20.11295057 472 19 C472 12.73 472 6.46 472 0 C545.92 0 619.84 0 696 0 C696 6.6 696 13.2 696 20 C694.35773437 20.03738281 692.71546875 20.07476562 691.0234375 20.11328125 C669.7928531 20.70243523 649.65444695 22.19213229 633.9140625 38.109375 C611.17497668 64.07200938 613.85288995 104.95231428 613.82870948 137.03586578 C613.8247654 140.80992895 613.81513077 144.58397828 613.80615234 148.35803223 C613.79130047 154.88544425 613.77971642 161.41285522 613.77020454 167.9402771 C613.75622379 177.41345507 613.73501924 186.88660731 613.71177601 196.3597666 C613.67395175 211.78150498 613.63897501 227.20324802 613.60717773 242.625 C613.60527724 243.54578327 613.60337675 244.46656654 613.60141867 245.41525233 C613.57465363 258.44800124 613.5507556 271.48075383 613.52803367 284.51351035 C613.52643637 285.42944256 613.52483906 286.34537477 613.52319336 287.2890625 C613.52159989 288.20385451 613.52000643 289.11864651 613.51836468 290.06115949 C613.49143232 305.41083452 613.45696643 320.76048209 613.41653961 336.11012745 C613.39200616 345.53666395 613.37354659 354.96317124 613.363384 364.38973439 C613.35589225 370.87434263 613.34121947 377.35891144 613.32131977 383.84349334 C613.31012941 387.56205382 613.30178093 391.28055142 613.30232811 394.99913025 C613.30254029 421.12381289 612.37285376 447.28473258 609.3125 473.25 C609.23174225 473.94461334 609.1509845 474.63922668 609.06777954 475.35488892 C602.20234075 533.62055953 586.21077129 587.41177549 539.39453125 626.15625 C537.62237805 627.47326003 535.8153591 628.74321293 534 630 C533.34 630.66 532.68 631.32 532 632 C529.06332283 634.09272556 526.01871783 636.02816342 523 638 C521.95070313 638.69738281 520.90140625 639.39476562 519.8203125 640.11328125 C497.2555704 655.00776908 473.06793597 664.05502486 447 671 C446.0404541 671.25998779 445.0809082 671.51997559 444.09228516 671.7878418 C436.70006019 673.72488415 429.31620996 675.01621164 421.75 676.0625 C420.54794922 676.23241455 419.34589844 676.4023291 418.10742188 676.57739258 C408.91429383 677.83522795 399.7181821 678.74298698 390.46386719 679.40454102 C389.53735352 679.47084717 388.61083984 679.53715332 387.65625 679.60546875 C386.84994141 679.65856201 386.04363281 679.71165527 385.21289062 679.76635742 C383.04008018 679.93549773 383.04008018 679.93549773 381.15200806 680.5065155 C378.81700002 681.04196437 376.74944272 681.12702 374.35498047 681.12939453 C372.98368484 681.13412277 372.98368484 681.13412277 371.58468628 681.13894653 C370.60541168 681.1369223 369.62613708 681.13489807 368.6171875 681.1328125 C367.60657257 681.13376923 366.59595764 681.13472595 365.55471802 681.13571167 C363.42140643 681.13639151 361.28809276 681.1345509 359.15478516 681.13037109 C355.88048696 681.12500899 352.60632524 681.13032844 349.33203125 681.13671875 C347.26041636 681.13605815 345.18880156 681.13477737 343.1171875 681.1328125 C342.13386444 681.13483673 341.15054138 681.13686096 340.13742065 681.13894653 C339.22952789 681.13579437 338.32163513 681.13264221 337.38623047 681.12939453 C336.58555145 681.12859894 335.78487244 681.12780334 334.95993042 681.12698364 C333 681 333 681 331 680 C328.88735467 679.75301208 326.768583 679.55776374 324.6484375 679.38671875 C323.31945571 679.27443344 321.99051862 679.16161805 320.66162109 679.04833984 C319.96188171 678.98974792 319.26214233 678.93115601 318.54119873 678.87078857 C304.63204345 677.69389321 290.94447079 675.944832 277.20947266 673.40454102 C275.3674028 673.06726922 273.52013105 672.75856598 271.671875 672.45703125 C250.02413025 668.75412754 228.84587678 660.6120461 209.0625 651.3125 C208.03672852 650.83200195 208.03672852 650.83200195 206.99023438 650.34179688 C205.32634684 649.56221321 203.66310462 648.78125249 202 648 C202 647.34 202 646.68 202 646 C201.1646875 645.76152344 200.329375 645.52304687 199.46875 645.27734375 C195.4526212 643.79843146 192.10099137 641.84694777 188.5 639.5625 C187.80438965 639.12365479 187.1087793 638.68480957 186.39208984 638.23266602 C164.39344428 624.10067215 145.46873781 605.63608413 131.16748047 583.78320312 C130.20982018 582.32047817 129.23431156 580.86945331 128.25390625 579.421875 C87.31552582 515.96183813 95.48635203 416.9026105 95.72114658 344.91064416 C95.74716743 336.70719854 95.75415765 328.50376271 95.76028444 320.30028202 C95.77159189 305.67289694 95.79549345 291.0455639 95.82861328 276.41821289 C95.8606045 262.27075726 95.88888417 248.12330546 95.91064453 233.97583008 C95.9119981 233.09765353 95.91335168 232.21947698 95.91474627 231.31468902 C95.92939253 221.72247294 95.9426177 212.13025568 95.95417976 202.53803539 C95.95570734 201.27425753 95.95570734 201.27425753 95.95726577 199.98494881 C95.96131706 196.61791659 95.96535391 193.25088436 95.96921016 189.88385191 C95.98048831 180.06844092 95.9961269 170.25306058 96.01985599 160.43767139 C96.03456487 154.31241817 96.04603401 148.18716496 96.05496179 142.06190059 C96.06027134 138.53455303 96.06730789 135.00722972 96.07883072 131.47989655 C96.09131768 127.65593677 96.09603099 123.83198938 96.10006714 120.00801086 C96.10502634 118.89881721 96.10998554 117.78962356 96.11509502 116.64681798 C96.11432096 110.99318685 95.81486259 105.59395141 95 100 C94.96394496 98.36237395 94.96036877 96.72327318 95.0078125 95.0859375 C95.19446552 75.51723499 90.22829345 49.63345566 76.5 35 C73.60569358 32.30507913 70.61196605 30.63398464 67 29 C66.505 28.01 66.505 28.01 66 27 C63.65092125 26.31068656 63.65092125 26.31068656 60.9375 25.875 C60.01839844 25.70742188 59.09929687 25.53984375 58.15234375 25.3671875 C57.44207031 25.24601562 56.73179687 25.12484375 56 25 C56 24.34 56 23.68 56 23 C43.82807845 21.17202161 31.85540478 20.62172765 19.5625 20.4375 C16.8983446 20.39347034 14.23430406 20.34696644 11.57029724 20.29469299 C9.92997683 20.26285521 8.28955203 20.23592844 6.64906311 20.21446228 C1.11201428 20.11201428 1.11201428 20.11201428 0 19 C0 12.73 0 6.46 0 0 Z " fill="#005883" transform="translate(153,295)"/>
<path d="M0 0 C9.19157367 8.48791252 15.52642759 20.85542056 16.48828125 33.34375 C16.80715309 47.97828907 12.30725376 58.6688905 4 70.4375 C-5.13766061 79.78283472 -18.50217367 86.84185131 -31.75 87.25 C-46.768334 85.90003739 -59.42172239 80.61760115 -69.75 69.25 C-70.08 68.26 -70.41 67.27 -70.75 66.25 C-71.41 66.25 -72.07 66.25 -72.75 66.25 C-73.03875 65.280625 -73.3275 64.31125 -73.625 63.3125 C-74.39214682 60.14335797 -74.39214682 60.14335797 -76.75 59.25 C-81.13917402 49.49443963 -82.93564533 38.78083661 -80.75 28.25 C-80.59917969 27.22519531 -80.59917969 27.22519531 -80.4453125 26.1796875 C-78.4846116 14.69558223 -70.50811229 4.34592286 -61.3359375 -2.5703125 C-41.40814854 -15.15961409 -18.76464541 -14.71982185 0 0 Z " fill="#F17821" transform="translate(536.75,17.75)"/>
<path d="M0 0 C0.66773438 0.25523438 1.33546875 0.51046875 2.0234375 0.7734375 C14.76163591 6.26143602 22.99173072 17.75304381 28.01953125 30.16796875 C32.43804393 42.93060498 30.45446054 55.9265229 25 67.875 C18.97366903 79.85440315 9.63503067 87.47125699 -3 92 C-15.83292971 96.18789491 -28.20003183 95.46133827 -40.5 89.6875 C-42.01990996 88.8258788 -43.52173095 87.93125613 -45 87 C-45.69351563 86.58105469 -46.38703125 86.16210938 -47.1015625 85.73046875 C-56.99305812 79.10431242 -63.84279863 67.60092302 -66.58544922 56.15649414 C-69.04500782 43.3618645 -67.04222184 29.80149996 -59.875 18.875 C-58.92813624 17.57490209 -57.97121748 16.28200708 -57 15 C-56.34 14.01 -55.68 13.02 -55 12 C-54.34 12 -53.68 12 -53 12 C-53 11.34 -53 10.68 -53 10 C-38.11398427 -2.43702605 -18.52585863 -7.9793024 0 0 Z " fill="#F27820" transform="translate(685,57)"/>
<path d="M0 0 C1.40932097 1.02334478 2.80611581 2.06424657 4.1875 3.125 C4.80238281 3.56457031 5.41726563 4.00414062 6.05078125 4.45703125 C15.80366991 11.96091676 21.14988316 24.05015829 22.8984375 35.94921875 C24.17298039 49.95196704 20.04734881 62.32877187 11.1875 73.125 C10.61386719 73.83527344 10.04023437 74.54554688 9.44921875 75.27734375 C1.4261997 84.22807807 -10.7404689 89.56113066 -22.640625 90.30078125 C-38.02106941 90.6754331 -49.61040139 86.71755598 -60.8828125 76.046875 C-66.94642714 70.0078094 -69.90224419 64.10165004 -72.8125 56.125 C-73.18761719 55.12146484 -73.18761719 55.12146484 -73.5703125 54.09765625 C-76.53911537 44.54312871 -75.96960365 33.17974398 -71.8125 24.125 C-71.48378906 23.32835937 -71.15507813 22.53171875 -70.81640625 21.7109375 C-64.98372671 8.67318322 -54.71246215 0.43700552 -41.85546875 -5.11328125 C-28.43525302 -10.11699457 -11.82393163 -7.52612064 0 0 Z " fill="#F17821" transform="translate(800.8125,167.875)"/>
<path d="M0 0 C1.3655566 1.00554623 2.72109026 2.02496063 4.0625 3.0625 C5.073125 3.76375 6.08375 4.465 7.125 5.1875 C16.31285971 13.22367813 21.5619646 25.24188044 22.4375 37.2421875 C23.08855456 52.4652748 18.38377088 65.41383606 8.0625 76.75 C-1.05752676 85.46812728 -14.33395991 90.86618318 -26.9375 91.0625 C-37.25825055 90.29058791 -47.35110768 86.90623343 -55.9375 81.0625 C-55.9375 80.4025 -55.9375 79.7425 -55.9375 79.0625 C-56.52789062 78.80210937 -57.11828125 78.54171875 -57.7265625 78.2734375 C-66.5110596 73.4621405 -71.12938549 62.60409329 -74.08203125 53.5546875 C-77.1151332 41.39646607 -75.77203587 28.35615896 -69.5078125 17.328125 C-61.51513186 5.79639671 -51.38796533 -3.03593651 -37.640625 -6.51953125 C-24.55529187 -8.54284143 -11.30414044 -7.27903886 0 0 Z " fill="#F27820" transform="translate(368.9375,60.9375)"/>
<path d="M0 0 C11.59906985 7.78940468 20.53508952 18.44880291 23.81640625 32.19726562 C26.45382853 46.05001219 23.48058029 59.23529474 15.9140625 71.0390625 C10.59047248 78.33435253 4.21493835 83.22811283 -3.7734375 87.3515625 C-4.38445312 87.66996094 -4.99546875 87.98835938 -5.625 88.31640625 C-16.30596469 93.04520339 -28.97097603 93.50182699 -39.7734375 89.3515625 C-51.71564326 84.55635456 -61.74330092 76.9460934 -67.7734375 65.3515625 C-67.7734375 64.6915625 -67.7734375 64.0315625 -67.7734375 63.3515625 C-68.4334375 63.0215625 -69.0934375 62.6915625 -69.7734375 62.3515625 C-74.80815792 47.72919268 -74.63945597 34.39072985 -68.2734375 20.1640625 C-63.38165484 11.06193954 -55.1904297 2.76469169 -45.7734375 -1.6484375 C-44.95101562 -2.03773438 -44.12859375 -2.42703125 -43.28125 -2.828125 C-29.58796764 -8.32819686 -12.70165204 -7.54943262 0 0 Z " fill="#F27820" transform="translate(258.7734375,166.6484375)"/>
<path d="M0 0 C1.65 0 3.3 0 5 0 C5 3.96 5 7.92 5 12 C3.35 12 1.7 12 0 12 C-0.19477739 10.37585622 -0.38059458 8.75063577 -0.5625 7.125 C-0.66691406 6.22007812 -0.77132812 5.31515625 -0.87890625 4.3828125 C-1 2 -1 2 0 0 Z " fill="#025883" transform="translate(844,669)"/>
<path d="" fill="#636367" transform="translate(0,0)"/>
<path d="" fill="#636367" transform="translate(0,0)"/>
<path d="" fill="#636367" transform="translate(0,0)"/>
</svg>
